M48
;FILE_FORMAT=2:4
INCH,TZ
;TYPE=PLATED
T01C0.012
T02C0.020
T04C0.038
T05C0.039
T06C0.063
;TYPE=NON_PLATED
T03C0.026
%
T01
X+42323Y+50748
X+44016Y+50551
X+44055Y+51693
X+43386Y+52559
X+42756Y+54724
X+47795Y+57402
X+48307Y+42756
X+48268Y+56693
X+52362Y+43819
X+51772Y+43898
X+52205Y+43268
X+52795Y+43858
X+53622Y+46614
X+51299Y+50787
X+51260Y+50079
X+51772Y+50354
X+52087Y+50157
X+53622Y+50709
X+52441Y+49843
X+53110Y+50669
X+52087Y+50709
X+52402
X+52598Y+51654
X+52402Y+52953
X+51811Y+54370
X+51575Y+54764
X+55433Y+51535
X+54803Y+58268
X+55276Y+58583
X+57835Y+48583
X+59646Y+50394
X+59331Y+53110
X+59449Y+58386
Y+58740
Y+58031
Y+59685
X+59094Y+60236
Y+60591
X+60591Y+49449
X+61732Y+48740
X+60354Y+50118
X+62087Y+50787
X+62244Y+56496
X+62402Y+59449
X+62756Y+59094
X+62677Y+59724
X+42756Y+54094
X+44606Y+50827
X+54213Y+56850
X+59449Y+57126
X+58268Y+57114
X+57520Y+59921
X+62205Y+57165
X+47913Y+48622
X+47953Y+55039
X+53898Y+49843
X+60000Y+56457
X+60039Y+59449
X+51102Y+57756
X+63110Y+55354
T02
X+57697Y+58165
X+57106
T03
X+63346Y+44823
X+60591
X+61762Y+48289
Y+50565
T04
X+41000Y+41000
Y+44000
Y+43000
Y+47000
Y+46000
Y+50000
Y+49000
Y+53000
Y+52000
Y+56000
Y+55000
Y+59000
Y+58000
X+47000Y+41000
Y+44000
Y+43000
Y+47000
Y+46000
Y+50000
Y+49000
Y+53000
Y+52000
Y+56000
Y+55000
Y+59000
Y+58000
X+41000Y+51000
Y+48000
Y+45000
Y+42000
Y+60000
Y+57000
Y+54000
X+47000Y+51000
Y+48000
Y+45000
Y+42000
Y+60000
Y+57000
Y+54000
X+40000Y+44000
Y+47000
Y+46000
Y+50000
Y+49000
Y+53000
Y+52000
Y+56000
Y+55000
X+46000Y+44000
Y+47000
Y+46000
Y+50000
Y+49000
Y+53000
Y+52000
Y+56000
Y+55000
X+40000Y+48000
Y+45000
Y+57000
Y+54000
Y+51000
X+46000Y+48000
Y+45000
Y+51000
Y+54000
Y+57000
X+50000Y+41000
Y+44000
Y+43000
Y+47000
Y+46000
Y+50000
Y+49000
Y+53000
Y+52000
Y+56000
Y+55000
Y+59000
Y+58000
X+56000Y+41000
Y+44000
Y+43000
Y+47000
Y+46000
Y+50000
Y+49000
Y+53000
Y+52000
Y+56000
Y+55000
Y+59000
Y+58000
X+50000Y+51000
Y+48000
Y+45000
Y+42000
Y+60000
Y+57000
Y+54000
X+56000Y+51000
Y+48000
Y+45000
Y+42000
Y+60000
Y+57000
Y+54000
X+61260Y+52677
X+62260
X+63260
X+60346Y+41772
X+61346
X+58346
X+59346
X+61220Y+53937
X+62220
X+63220
X+49000Y+44000
Y+47000
Y+46000
Y+50000
Y+49000
Y+53000
Y+52000
Y+56000
Y+55000
X+55000Y+44000
Y+47000
Y+46000
Y+50000
Y+49000
Y+53000
Y+52000
Y+56000
Y+55000
X+49000Y+48000
Y+45000
Y+57000
Y+54000
Y+51000
X+55000Y+48000
Y+45000
Y+51000
Y+54000
Y+57000
T05
X+63203Y+47717
Y+51118
X+61565Y+47717
Y+51118
T06
X+44134Y+40669
X+48504Y+59055
X+62992Y+40669
T00
M30
