M48
;FILE_FORMAT=2:4
INCH,TZ
;TYPE=PLATED
T01C0.020
T02C0.038
T03C0.039
%
T01
X+39961Y+29606
Y+28937
X+40984Y+32598
X+43484Y+27697
X+42480Y+29665
X+43583Y+29685
X+43445Y+31142
X+43110Y+32618
X+44311Y+31634
X+42697Y+30669
X+42677Y+31122
X+43661Y+32480
X+43858Y+31752
X+43150Y+31831
X+42618Y+32283
X+43484Y+34291
X+45453Y+29469
X+46850Y+30591
Y+31102
X+46752Y+32165
X+46772Y+32618
X+50413Y+29094
X+50492Y+27697
X+40256Y+33091
X+39331Y+33031
X+42992Y+29980
X+47402Y+33071
X+46850Y+30138
X+36161Y+31024
Y+32461
X+48209Y+29213
X+47894Y+32146
X+44803Y+30512
X+45020Y+32598
X+45217Y+31713
X+45118Y+30846
X+44764Y+31693
X+36161Y+30118
X+48874Y+29429
Y+30020
T02
X+52362Y+28992
Y+29992
Y+31992
Y+32992
Y+30992
X+51378Y+32992
Y+31992
Y+30992
X+52000Y+28000
X+49000
X+50000
X+46000
X+47000
X+43000
X+44000
X+40000
X+41000
X+37000
X+38000
X+34000
X+35000
X+52000Y+34000
X+49000
X+50000
X+46000
X+47000
X+43000
X+44000
X+40000
X+41000
X+37000
X+38000
X+34000
X+35000
X+42000Y+28000
X+45000
X+48000
X+51000
X+33000
X+36000
X+39000
X+42000Y+34000
X+45000
X+48000
X+51000
X+33000
X+36000
X+39000
T03
X+50394Y+31969
Y+32969
T00
M30
