M48
;FILE_FORMAT=2:4
INCH,TZ
;TYPE=PLATED
T01C0.020
T02C0.038
T03C0.039
%
T01
X+33504Y+33583
X+38268Y+29528
X+38031Y+28976
X+38583Y+32520
X+37480Y+32441
X+37638Y+31929
X+36654Y+32323
X+39488Y+28425
X+40709Y+29449
X+39803Y+31457
X+41299Y+30315
X+40669Y+30866
X+40315Y+31378
X+39882Y+30709
X+40787Y+31535
X+39921Y+32283
X+40394Y+32323
X+40945Y+32008
X+44173Y+29173
X+43386
X+42835Y+29606
X+44213Y+31181
X+42795Y+30394
X+42874Y+32047
X+42480Y+32559
X+42874Y+30906
X+45630Y+29370
X+47598Y+31575
X+47047
X+46000Y+31000
X+46102Y+32717
X+50551Y+29252
X+49843Y+29173
X+50433Y+30315
X+49843
X+51417Y+29724
X+35315Y+29921
X+35512Y+33031
X+36732Y+33110
X+40000Y+29764
X+39961Y+30236
X+44528Y+33189
X+36181Y+32323
X+42205Y+29528
X+42047Y+30906
X+41850Y+32520
X+42205Y+32165
X+44622Y+30177
Y+30768
T02
X+52362Y+28992
Y+29992
Y+31992
Y+32992
Y+30992
X+51378Y+32992
Y+31992
Y+30992
X+52000Y+28000
X+49000
X+50000
X+46000
X+47000
X+43000
X+44000
X+40000
X+41000
X+37000
X+38000
X+34000
X+35000
X+52000Y+34000
X+49000
X+50000
X+46000
X+47000
X+43000
X+44000
X+40000
X+41000
X+37000
X+38000
X+34000
X+35000
X+42000Y+28000
X+45000
X+48000
X+51000
X+33000
X+36000
X+39000
X+42000Y+34000
X+45000
X+48000
X+51000
X+33000
X+36000
X+39000
T03
X+50394Y+31969
Y+32969
T00
M30
